<svg width="136" height="24" viewBox="0 0 136 24" fill="none" xmlns="http://www.w3.org/2000/svg">
<path d="M12 2.00006L15.09 8.26006L22 9.27006L17 14.1401L18.18 21.0201L12 17.7701L5.82 21.0201L7 14.1401L2 9.27006L8.91 8.26006L12 2.00006Z" fill="#FFC107"/>
<path d="M40 2.00006L43.09 8.26006L50 9.27006L45 14.1401L46.18 21.0201L40 17.7701L33.82 21.0201L35 14.1401L30 9.27006L36.91 8.26006L40 2.00006Z" fill="#FFC107"/>
<path d="M68 2.00006L71.09 8.26006L78 9.27006L73 14.1401L74.18 21.0201L68 17.7701L61.82 21.0201L63 14.1401L58 9.27006L64.91 8.26006L68 2.00006Z" fill="#FFC107"/>
<path d="M96 2.00006L99.09 8.26006L106 9.27006L101 14.1401L102.18 21.0201L96 17.7701L89.82 21.0201L91 14.1401L86 9.27006L92.91 8.26006L96 2.00006Z" fill="#FFC107"/>
<path d="M124 2.00006L127.09 8.26006L134 9.27006L129 14.1401L130.18 21.0201L124 17.7701L117.82 21.0201L119 14.1401L114 9.27006L120.91 8.26006L124 2.00006Z" fill="#FFC107"/>
</svg>
